<svg width="149" height="29" viewBox="0 0 149 29" fill="none" xmlns="http://www.w3.org/2000/svg">
<path d="M11.14 16.43V19.67H26.98V16.43H11.14ZM9.4 24.59V27.86H28.51V24.59H9.4ZM9.88 3.11V8.84H12.97V6.11H25.03V8.75H28.3V3.11H9.88ZM17.26 0.499999V5.12H20.77V0.499999H17.26ZM17.14 18.17V26.15H20.71V18.17H17.14ZM19.75 5.87V11.06C19.75 13.82 20.32 14.75 23.08 14.75C23.62 14.75 24.85 14.75 25.42 14.75C27.43 14.75 28.24 13.88 28.57 10.7C27.7 10.49 26.35 9.98 25.75 9.5C25.66 11.54 25.54 11.84 25.03 11.84C24.76 11.84 23.86 11.84 23.65 11.84C23.14 11.84 23.05 11.78 23.05 11.03V5.87H19.75ZM14.77 5.96C14.65 9.92 14.2 11.87 9.67 12.92C10.3 13.55 11.11 14.72 11.35 15.5C16.96 14.03 17.83 11.09 18.01 5.96H14.77ZM0.1 15.62L0.97 19.04C3.64 18.11 6.97 16.91 10.06 15.74L9.43 12.56C6.04 13.73 2.5 14.93 0.1 15.62ZM0.58 6.23V9.53H9.55V6.23H0.58ZM3.76 0.559999V24.89C3.76 25.31 3.61 25.4 3.25 25.4C2.89 25.43 1.84 25.43 0.76 25.37C1.18 26.36 1.6 27.83 1.69 28.73C3.64 28.73 4.93 28.61 5.83 28.04C6.76 27.5 7.06 26.57 7.06 24.89V0.559999H3.76ZM48.76 3.02V19.97H52.12V3.02H48.76ZM54.16 1.04V24.44C54.16 24.92 54.01 25.07 53.53 25.07C52.99 25.07 51.43 25.07 49.87 25.01C50.32 26.06 50.83 27.65 50.98 28.67C53.29 28.67 55.03 28.55 56.14 27.98C57.25 27.35 57.64 26.39 57.64 24.44V1.04H54.16ZM37.42 0.709998V28.67H40.84V0.709998H37.42ZM43.48 15.44V23.06C43.48 23.36 43.39 23.42 43.12 23.42C42.85 23.42 42.07 23.42 41.26 23.39C41.65 24.26 42.04 25.55 42.13 26.45C43.63 26.48 44.77 26.42 45.64 25.91C46.54 25.37 46.72 24.53 46.72 23.12V15.44H43.48ZM31.75 15.44V26.3H34.96V18.65H44.77V15.44H31.75ZM30.58 10.04V13.28H47.44V10.04H30.58ZM33.73 4.52L33.07 7.79H46.27V4.52H33.73ZM32.89 1.1C32.35 3.95 31.36 6.98 30.13 8.93C30.97 9.23 32.53 9.83 33.25 10.25C34.39 8.18 35.53 4.91 36.19 1.76L32.89 1.1ZM66.07 23.99V27.47H82.63V23.99H66.07ZM64.45 15.38V28.67H68.14V18.83H80.65V28.67H84.52V15.38H64.45ZM70.33 0.289998C69.04 3.65 66.67 7.97 64.66 10.7L67.9 11.99C69.94 9.38 72.49 5.36 74.44 1.64L70.33 0.289998ZM77.53 5.66C80.53 8.24 83.95 11.9 85.36 14.42L88.51 12.02C86.95 9.44 83.35 5.96 80.38 3.56L77.53 5.66ZM61.27 9.02L61.48 12.68C67.39 12.44 76.39 12.08 84.7 11.63L84.88 8.15C76.63 8.51 67.33 8.87 61.27 9.02ZM100.66 2.57V5.54H117.97V2.57H100.66ZM100.12 19.46V22.4H118.06V19.46H100.12ZM104.2 0.529999V7.25H107.59V0.529999H104.2ZM111.07 0.529999V7.25H114.58V0.529999H111.07ZM104.83 13.91H113.11V15.2H104.83V13.91ZM104.83 10.28H113.11V11.54H104.83V10.28ZM101.5 7.76V17.72H116.59V7.76H101.5ZM107.32 17.36C106.9 21.77 105.97 24.44 99.01 25.82C99.67 26.54 100.54 27.86 100.84 28.7C108.82 26.81 110.29 23.12 110.83 17.36H107.32ZM111.64 20.48L108.64 21.11C110.05 24.92 112.54 27.5 116.68 28.67C117.13 27.74 118.12 26.39 118.87 25.7C115.24 24.98 112.78 23.12 111.64 20.48ZM90.76 6.14V9.44H100.15V6.14H90.76ZM94 0.529999V28.7H97.42V0.529999H94ZM94.36 8.6C93.64 12.38 91.96 17.12 90.04 19.64C90.61 20.6 91.42 22.25 91.75 23.3C93.79 20.18 95.5 14.3 96.31 9.35L94.36 8.6ZM97.24 10.25L95.59 11.57C96.49 13.13 98.23 16.67 98.92 18.5L101.08 16.01C100.51 15.05 97.96 11.15 97.24 10.25ZM134.71 2.3V5.63H148V2.3H134.71ZM134.71 9.92V13.16H145V9.92H134.71ZM132.88 2.3V10.82C132.88 15.53 132.58 22.07 129.19 26.54C129.97 26.9 131.47 28.04 132.04 28.67C135.76 23.84 136.36 16.04 136.36 10.85V2.3H132.88ZM138.4 12.29L135.37 12.98C137.29 20.27 140.59 25.94 146.47 28.82C146.98 27.89 148.06 26.51 148.87 25.79C143.35 23.54 139.99 18.41 138.4 12.29ZM144.34 9.92V10.55C143.2 17.81 139.48 23.48 134.32 25.88C135.07 26.54 136.03 27.86 136.51 28.7C142.42 25.52 146.38 19.7 147.82 10.49L145.57 9.8L144.97 9.92H144.34ZM120.82 6.71V10.07H131.56V6.71H120.82ZM124.81 0.529999V28.7H128.2V0.529999H124.81ZM124.69 9.02C123.91 12.86 122.11 17.54 120.07 20.15C120.61 21.02 121.42 22.49 121.75 23.48C124 20.39 125.86 14.57 126.76 9.77L124.69 9.02ZM128.08 11.54L126.46 13.1C127.39 14.6 129.34 17.96 130.12 19.79L132.13 17.03C131.56 16.16 128.83 12.38 128.08 11.54Z" fill="white"/>
</svg>
